<svg xmlns="http://www.w3.org/2000/svg" viewBox="0 0 137.54 104.72"><defs><style>.cls-1{fill:#686868;opacity:0.76;}.cls-1,.cls-5,.cls-6{isolation:isolate;}.cls-2{fill:#e2271a;}.cls-2,.cls-3,.cls-4{stroke:#000;stroke-miterlimit:10;}.cls-2,.cls-4{stroke-width:2px;}.cls-3{fill:#eaeadf;stroke-width:0.5px;}.cls-4{fill:#152b87;}.cls-5,.cls-6{font-size:15.71px;fill:#e5e9e1;font-family:MyriadPro-Regular, Myriad Pro;}.cls-6{letter-spacing:0.02em;}.cls-7{fill:#0e1f54;opacity:0.19;}.cls-8{fill:#7c1311;opacity:0.62;}.cls-9{fill:#d3d3d1;opacity:0.63;}</style></defs><title>bakerstreet</title><g id="Layer_2" data-name="Layer 2"><g id="Layer_1-2" data-name="Layer 1"><g id="Layer_2-2" data-name="Layer 2"><g id="Layer_1-2-2" data-name="Layer 1-2"><ellipse class="cls-1" cx="69.76" cy="95.11" rx="54.78" ry="9.61"/><g id="Layer_2-2-2" data-name="Layer 2-2"><g id="Layer_1-2-2-2" data-name="Layer 1-2-2"><circle class="cls-2" cx="70.08" cy="52.36" r="51.36"/><circle class="cls-3" cx="69.84" cy="51.33" r="34.17"/><rect class="cls-4" x="1" y="38.6" width="135.54" height="24.01"/><text class="cls-5" transform="translate(21.82 55.44)">BAKER STRE</text><text class="cls-6" transform="translate(99.69 55.44)">E</text><text class="cls-5" transform="translate(107.67 55.44)">T</text></g></g></g></g><path class="cls-7" d="M2,53.4H135.51v8.22H2Z"/><path class="cls-8" d="M21.1,63.81c8,21.18,28.3,35.06,50.36,34.55A52.79,52.79,0,0,0,118.39,66.3,50.23,50.23,0,0,1,21.1,63.81Z"/><path class="cls-9" d="M41.35,69.86c1.46,1.7,11.43,12.93,28.07,13.06C86.49,83,96.78,71.38,98.17,69.74,97.44,70.84,87.62,85,69.64,85,51.85,84.94,42.12,71,41.35,69.86Z"/><path class="cls-9" d="M98.06,32.19C96.56,30.52,86.34,19.46,69.6,19.62c-17.17.16-27.31,12-28.69,13.67.72-1.12,10.35-15.47,28.43-15.74C87.23,17.29,97.25,31,98.06,32.19Z"/></g></g></svg>