<svg xmlns="http://www.w3.org/2000/svg" viewBox="0 0 421.36 415.6"><defs><style>.cls-1{fill:#ac7242;}.cls-2{fill:#fda187;}.cls-3{fill:#da9457;}.cls-4{fill:#ecb283;}.cls-5{fill:#ac7740;}.cls-6{fill:#ae6327;}.cls-7{fill:#a64d29;}.cls-8{fill:#f3efe0;}.cls-9{fill:#732b28;}.cls-10{fill:#571612;}.cls-11{fill:#5f1716;}.cls-12{fill:#6f1b1d;}.cls-13{fill:#cecece;}.cls-14{fill:#fe9271;}.cls-15{fill:#a0693a;}.cls-16{fill:#bd7d45;}.cls-17{fill:#1c1f1e;}.cls-18{fill:#1a1e1f;}.cls-19{fill:#c78a4c;}.cls-20{fill:#fda084;}.cls-21{fill:#361322;}.cls-22{fill:#b2774f;}.cls-23{fill:#f7c040;}.cls-24{fill:#895423;}.cls-25{fill:#b56e30;}.cls-26{fill:#96551c;}.cls-27{fill:#a66737;}.cls-28{fill:#f7a937;}.cls-29{fill:#5f3a17;}.cls-30{fill:#3e3c41;}.cls-31{fill:#9b5454;}.cls-32{fill:#d37b64;opacity:0.79;}.cls-32,.cls-37{isolation:isolate;}.cls-33{fill:#f79f85;stroke:#3e3c41;stroke-miterlimit:10;stroke-width:6px;}.cls-34{fill:#352f1b;}.cls-35{fill:#174059;}.cls-36{fill:#8e5e3d;}.cls-37{fill:#e5e4e3;opacity:0.51;}.cls-38{fill:#11303f;}</style></defs><title>detective</title><g id="Layer_2" data-name="Layer 2"><g id="Layer_1-2" data-name="Layer 1"><path class="cls-1" d="M29.52,206.59a29.31,29.31,0,0,0-1.79,18.78,28.43,28.43,0,0,0,5.65,11.18,33,33,0,0,0,15.88,0A16.33,16.33,0,0,0,55.43,228V200.52l-7.67-26.19-8.24,11.44,10.4,15.77c-5.63,17-9,20.85-11.11,20.58-.4,0-1.16-.3-4-5.12A89.52,89.52,0,0,1,29.52,206.59Z"/><path class="cls-2" d="M23.13,193.2,36,220.2a3.94,3.94,0,0,0,2.83,1.94c4.85.27,9.32-14.2,11.11-20.58L40.17,187H35.25A12,12,0,0,1,23.13,193.2Z"/><polygon class="cls-1" points="97.26 237.6 98.07 216.91 80.79 186.06 97.26 237.6"/><path class="cls-1" d="M72.52,180l.83,8.41,7.48-2.35,7.87-7.7Z"/><polygon class="cls-3" points="67.76 134.06 67.56 180.5 88.66 178.37 91.87 175.44 67.76 134.06"/><polygon class="cls-4" points="80.79 186.06 91.87 175.44 98.07 190.53 98.07 216.91 80.79 186.06"/><path class="cls-5" d="M67.76,134.06l6.53-1.82a35.34,35.34,0,0,0,9.89,11.46l-7.75,5.19Z"/><path class="cls-5" d="M137.09,128.07l8.77,2.5L132.42,151.3,126,142.9a41.86,41.86,0,0,0,11-14.83Z"/><path class="cls-1" d="M154.74,154.38a25.27,25.27,0,0,1,8.93,5.05l29,97a54.52,54.52,0,0,1-34.94,13.85l-9-65.09Z"/><path class="cls-6" d="M126.92,183.39l-13.4,48.19-1.35-15Z"/><polygon class="cls-7" points="117.68 216.53 113.14 227.79 113.48 231.59 117.68 216.53"/><path class="cls-8" d="M104,152.74A31.18,31.18,0,0,1,89.41,148a30,30,0,0,1-5.23-4.27l-6.89,4.64,13,17.68L104,152.74,118.22,167l14.2-15.73L126,142.9a38.09,38.09,0,0,1-22,9.84Z"/><path class="cls-8" d="M79.72,149l-3.36-.15,21.71,41.7-.82,54.3h14.87v-56.4l16.4-31.58L118.18,167l-7.34-7.39L106.52,172l-6-.11-5.46-10.4L90.34,166Z"/><polygon class="cls-9" points="104 152.75 95.76 160.72 97.77 170.74 98.83 170.72 109.93 170.49 112.43 161.24 104 152.75"/><path class="cls-9" d="M99.67,233.58l-.79-63,9.86-.11.48,63.07-4.52,5.66Z"/><path class="cls-10" d="M97.76,170.73a2.55,2.55,0,0,0,1.11,1v-1Z"/><path class="cls-10" d="M108.74,170.51h1.19a3.79,3.79,0,0,1-1.19,1.22Z"/><path class="cls-11" d="M98.83,170.71l9.91-.19v.37l-9.89.17Z"/><path class="cls-12" d="M101.73,171l.63,65.57-2.14-2.38-.7-63.15Z"/><polygon class="cls-12" points="95.76 160.72 104.05 153.59 112.43 161.24 104 152.75 95.76 160.72"/><polygon class="cls-13" points="109.93 170.49 118.2 167.03 112.43 161.24 109.93 170.49"/><path class="cls-13" d="M90.26,166l5.49-5.31,2,10Z"/><path class="cls-13" d="M118.2,167l10.32-10.2,3-4.57Z"/><path class="cls-13" d="M90.26,166,76.43,148.9l.86-.56Z"/><path class="cls-14" d="M33.52,189.92,44.4,216.64a38.52,38.52,0,0,0,5.51-15.1L39.52,185.77A7.28,7.28,0,0,1,35.25,187Z"/><path class="cls-15" d="M55.42,279.35l19.1-19.59-.11,5.65L55,285.41Z"/><polygon class="cls-16" points="62.07 225.54 54.81 311.88 49.75 309.5 57.42 229 62.07 225.54"/><path class="cls-15" d="M156.52,274.48l-19.09-19.59.11,5.65,19.45,20Z"/><path class="cls-17" d="M163.52,269.8a79.83,79.83,0,0,0,5.25,25.4,4.71,4.71,0,0,0,3.52-.47,4.57,4.57,0,0,0,1.77-2V287a27.69,27.69,0,0,0,16.27-9L187,260.69a54.42,54.42,0,0,1-23.51,9Z"/><path class="cls-18" d="M97.26,244.82a38.53,38.53,0,0,0,7.61.72,39.58,39.58,0,0,0,7.27-.72c7.2-1.07,28.91,21.24,34.67,58.1,1.61,10.29.46,12,.22,48.52-.11,16.69,0,30.35.19,39.32L126.92,393l-9.47-78-1.27-11.22L102,306.2l-1.58,83-20,2.67L68.71,316.79Z"/><path class="cls-19" d="M117.95,324.29l45.72-11.09-14.92-108,14.92-45.73A61.11,61.11,0,0,0,141.13,149l-19.86,30.51,1.11,14.09-10.25,23Z"/><polyline class="cls-1" points="112.13 210.16 121.71 323.38 128.99 321.51 117.42 205.16"/><path class="cls-19" d="M47.75,308.49,55.42,228V200.52l-7.48-25.25a29.67,29.67,0,0,0-1-20.21,49.52,49.52,0,0,1,20.8-3.74l-.22,29.18,4.92-.5.83,8.41,7.48-2.35L97.22,237.6l-1.88,84.2a130.44,130.44,0,0,1-47.62-13.31Z"/><path class="cls-20" d="M72.52,128.37A35.26,35.26,0,0,0,104,150.7a40.14,40.14,0,0,0,22.1-7.79c15.51-11.23,21.29-38.45,15-68.79l-29.22,5.29L110,102.61A48.8,48.8,0,0,1,72.52,128.37Z"/><path class="cls-14" d="M141,115.51a21.2,21.2,0,0,0,6.7-4.86c1.84-2,4.58-5,4.82-9.53A13.44,13.44,0,0,0,149.33,92a14,14,0,0,0-8.24-4.73"/><path class="cls-21" d="M148.3,72.2l-7.3.95v46l4.63-2.65A139.44,139.44,0,0,0,148.3,72.2Z"/><path class="cls-3" d="M128.24,157.28l-16.11,31.13v28.12l14.79-33.15-4-5h10.63l12.28-47.79Z"/><path class="cls-22" d="M35.25,73.56c-3.54,1.06-7.31,2.35-11.23,3.9a139.8,139.8,0,0,0-15.39,7.2c11.88,0,21.56-.13,28-.27C136.71,82.25,164.76,69,182.12,56c2.62-2,4.63-3.65,5.72-4.58a114.81,114.81,0,0,0-37,0l.53,4.79Z"/><path class="cls-23" d="M147.3,43.67a18,18,0,0,1,4.05,12.53c-12.28,3.19-25.56,6.13-39.78,8.58A485.59,485.59,0,0,1,50,71.37l-.09-13.84q21.75-3.78,44.65-7.11Q121.6,46.49,147.3,43.67Z"/><path class="cls-24" d="M49.92,57.51,63.63,9.43A123.18,123.18,0,0,1,112,0,121,121,0,0,1,137.9,3.11l9.4,40.56Z"/><path class="cls-25" d="M75.42,69.59a456.81,456.81,0,0,0,48.56-7c9.6-1.92,18.73-4.08,27.38-6.37A104.85,104.85,0,0,1,127.52,67,108.08,108.08,0,0,1,75.42,69.59Z"/><path class="cls-26" d="M63.63,9.43A121.58,121.58,0,0,1,137.9,3.11L102,9.74"/><path class="cls-27" d="M49.92,57.51,60.27,56.2,63.63,9.45Z"/><path class="cls-28" d="M138.18,45l9.12-1.3a18,18,0,0,1,4.05,12.54q-11.46,3-24,5.59c-12.19,2.49-23.83,4.41-34.83,5.86,10-1.32,25.18-5,38.84-16.23A69.42,69.42,0,0,0,138.18,45Z"/><path class="cls-3" d="M113.09,78.34A207.13,207.13,0,0,0,167.61,60q8.79-4.41,16.3-9.15l3.92.57a133,133,0,0,1-20.41,12.17,139.09,139.09,0,0,1-20.57,7.88A179.78,179.78,0,0,1,113.09,78.34Z"/><path class="cls-29" d="M137.9,3.11,134.4,4l-.68,41.5,13.58-1.81Z"/><path class="cls-30" d="M49.26,124.12,40.37,139.3c1.32.86,2.74,1.73,4.25,2.59s3.27,1.79,4.81,2.54L57.7,129.2Z"/><path class="cls-31" d="M102.18,110.19h8.51a1.91,1.91,0,0,1,1.91,1.9h0a1.91,1.91,0,0,1-1.91,1.9h-8.51a1.91,1.91,0,0,1-1.91-1.9h0A1.91,1.91,0,0,1,102.18,110.19Z"/><path class="cls-21" d="M106.34,116l25.77,12.75a38.65,38.65,0,0,1-12.56-.14,43.4,43.4,0,0,1-13.35-4.79,47.63,47.63,0,0,1-11.12,5,40.66,40.66,0,0,1-14.5,1.65Z"/><path class="cls-32" d="M141.16,90.67l-35.1,9-3.54-18.73,32-5.67,6.54-1.16Z"/><ellipse class="cls-33" cx="71.31" cy="89.94" rx="40.78" ry="38.43"/><circle class="cls-21" cx="126.4" cy="94.96" r="4.36"/><path class="cls-21" d="M137.21,85.64c-2.65.4-5.49.95-8.49,1.68a95.21,95.21,0,0,0-12.43,4l-.19-4.64a89.2,89.2,0,0,1,20.81-4.92Z"/><path class="cls-32" d="M33.6,86.37l70.57,20.47C105,105.4,113,91.6,106.55,76c-7-16.85-24.47-20.3-25.69-20.52-2.21-.58-17.19-4.22-31.21,5.38C36.45,69.93,34,84,33.6,86.37Z"/><path class="cls-21" d="M43.1,66.26c8.32,1.65,17.24,3.74,26.63,6.42,9,2.55,17.26,5.33,24.89,8.17l6-13.19A124.73,124.73,0,0,0,57.76,56.6a39.26,39.26,0,0,0-14.7,9.66Z"/><circle class="cls-21" cx="71.31" cy="94.96" r="14.17"/><path class="cls-32" d="M192.68,398.41a604.69,604.69,0,0,0-74.43-5.62c-20.11-.27-38.9.48-56.18,1.85-3.69-.41-6.62,2.1-6.84,4.57-.23,2.69,2.72,6,6.84,5.62,21.3.34,44,0,67.82-1.2C152,402.49,172.94,400.67,192.68,398.41Z"/><path class="cls-34" d="M79.44,391.86a20.44,20.44,0,0,0-9.38,6.57c4.47-.22,9.21-.6,14.2-1.18s9.58-1.3,13.94-2.1v-5.78L90,390.46Z"/><path class="cls-34" d="M130.44,392.5l.18,4.66,30.56,1.68a34.71,34.71,0,0,0-14-8.1Z"/><polygon class="cls-1" points="133.58 178.37 124.87 180.5 122.96 178.37 133.58 178.37"/><path class="cls-32" d="M84.18,143.7a28.76,28.76,0,0,0,19.82,9c13,.35,21-8.61,22-9.84a33.31,33.31,0,0,1-9.43,5.12C101.52,153.26,87.42,145.58,84.18,143.7Z"/><path d="M278.86,373.5c1.17-.15,2-2.18,1.48-3.14s.32-1-.53-2a7.75,7.75,0,0,1-1.7-2.83c-.11-.61-1.59-2,0-2.28s3.71,0,3.71.3,1.28,3.13,1.7,3.23.85,1.17.74,1.63a4.32,4.32,0,0,0,1.59,2.86c.85.43,1.91,1.57,4.24,1s6.36-2,7.74-2.13,5.09-1,5.09-1a14.61,14.61,0,0,1,3.92-1c1.38,0,2.54-.09,2.44.18s-4.13,1.26-4.13,1.26-3.92,1.36-4.77,1.73-5.72,1.57-7.31,2a11.26,11.26,0,0,0-3.81,1.69c-.74.58-2,1.11-5.19,1s-5.83-1.35-6.47-1.41-9.65-.61-11.56-1.07-10.07-1.41-11.13-1.56-.21-.68-.21-.68,7.21.27,8.27.45,4.88.7,6.89.92,5.09.76,5.62.76A20.64,20.64,0,0,0,278.86,373.5Z"/><path d="M277.52,362.74a3.73,3.73,0,0,0,1.15-1.45c1,.67,3.08,1.41,2.12,1.34A12.93,12.93,0,0,0,277.52,362.74Z"/><path d="M308.52,367.38l3,.54,1-1.46A32.88,32.88,0,0,1,308.52,367.38Z"/><path d="M253.21,371l-2.65-.31s.85.92,1.17.92S253,371.52,253.21,371Z"/><path d="M285,377.52s2.09-.06,3.29-.24.85,2.54.85,2.54S285.23,378.2,285,377.52Z"/><path d="M361.73,367.2c-1.17-.15-2-2.18-1.49-3.13s-.32-1,.53-2a7.75,7.75,0,0,0,1.69-2.83c.11-.61,1.59-2,0-2.28s-3.71,0-3.71.31-1.27,3.14-1.69,3.23-.85,1.17-.74,1.63a4.32,4.32,0,0,1-1.59,2.86c-.85.43-1.91,1.57-4.24,1s-6.36-2-7.74-2.12-5.09-1-5.09-1a14.61,14.61,0,0,0-3.92-1c-1.38,0-2.54-.09-2.44.19s4.14,1.26,4.14,1.26,3.92,1.35,4.77,1.72,5.73,1.56,7.32,2a11.26,11.26,0,0,1,3.82,1.69c.74.58,2,1.11,5.2,1s5.83-1.36,6.47-1.42,9.65-.62,11.55-1.09,10.07-1.42,11.13-1.58.21-.68.21-.68-7.21.28-8.27.47-4.88.71-6.89.93-5.09.77-5.62.77A20.66,20.66,0,0,1,361.73,367.2Z"/><path d="M363,356.42s-1-.79-1.15-1.44c-1,.67-3.08,1.42-2.12,1.34A12.93,12.93,0,0,1,363,356.42Z"/><path d="M332.1,361.1l-3,.54-1-1.46A32.94,32.94,0,0,0,332.1,361.1Z"/><path d="M387.38,364.64l2.65-.31s-.85.92-1.17.92S387.59,365.2,387.38,364.64Z"/><path d="M355.58,371.2a32.83,32.83,0,0,1-3.29-.24c-1.2-.19-.85,2.54-.85,2.54S355.37,371.86,355.58,371.2Z"/><path d="M301.35,345.2c.79,0,1.39-.75,1-1.12s.23-.37-.33-.75a3.17,3.17,0,0,1-1.1-1.1c-.06-.23-1-.8,0-.85a7.12,7.12,0,0,1,2.49.22c0,.13.81,1.2,1.09,1.25s.55.46.47.63.46.93,1,1.11a5.21,5.21,0,0,0,2.84.48c1.58-.16,4.32-.54,5.25-.56s3.44-.24,3.44-.24a16.46,16.46,0,0,1,2.66-.27c.93,0,1.72,0,1.64.14a20.72,20.72,0,0,1-2.81.35s-2.66.39-3.24.5-3.88.41-5,.52a11.32,11.32,0,0,0-2.6.52,8.8,8.8,0,0,1-3.52.24,28.65,28.65,0,0,1-4.33-.72c-.43,0-6.49-.51-7.77-.74s-6.76-.82-7.47-.91-.13-.26-.13-.26,4.85.32,5.56.41,3.27.41,4.63.55,3.41.44,3.77.45S300.52,345.2,301.35,345.2Z"/><path d="M300.64,341.13s.7-.26.8-.5c.67.28,2,.62,1.41.56A15.7,15.7,0,0,0,300.64,341.13Z"/><path d="M321.41,343.77l2,.29.67-.52S322.16,343.77,321.41,343.77Z"/><path d="M284.11,343.48l-1.78-.19a2.79,2.79,0,0,0,.77.38C283.32,343.67,284,343.66,284.11,343.48Z"/><path d="M305.43,346.85h2.22c.81,0,.53,1,.53,1A15.09,15.09,0,0,1,305.43,346.85Z"/><path d="M357.28,345.28c-.78-.09-1.32-.87-1-1.21s-.2-.39.39-.72a3.17,3.17,0,0,0,1.19-1c.08-.23,1.1-.71,0-.85a7.12,7.12,0,0,0-2.5,0c0,.13-.91,1.13-1.2,1.15s-.59.41-.53.58-.54.88-1.12,1a5.21,5.21,0,0,1-2.87.23c-1.56-.3-4.25-.92-5.18-1s-3.41-.54-3.41-.54a16.46,16.46,0,0,0-2.63-.5c-.93,0-1.71-.11-1.65,0a28,28,0,0,0,2.76.59s2.62.62,3.19.78,3.83.75,4.9,1a11.32,11.32,0,0,1,2.54.74,8.79,8.79,0,0,0,3.48.54,28.66,28.66,0,0,0,4.38-.34c.43,0,6.51.06,7.8-.06s6.81-.23,7.52-.26.15-.25.15-.25S368.68,345,368,345s-3.3.12-4.66.14-3.44.14-3.8.12S358.06,345.37,357.28,345.28Z"/><path d="M358.35,341.32s-.67-.32-.75-.57c-.69.22-2.1.44-1.45.44A15.7,15.7,0,0,1,358.35,341.32Z"/><path d="M337.42,342.14l-2,.11-.62-.57S336.67,342.07,337.42,342.14Z"/><path d="M374.6,345.1h1.79a2.79,2.79,0,0,1-.8.31C375.38,345.36,374.74,345.3,374.6,345.1Z"/><path d="M353.07,346.6s-1.41-.08-2.21-.19-.61.92-.61.92A15.09,15.09,0,0,0,353.07,346.6Z"/><path d="M317.32,327.79c.69,0,1.21-.55.91-.82s.2-.27-.29-.55a2.62,2.62,0,0,1-1-.82c-.06-.17-.91-.6,0-.63a7.3,7.3,0,0,1,2.18.18,2.77,2.77,0,0,0,1,.93c.25,0,.48.34.42.47s.41.69.9.83a5.28,5.28,0,0,0,2.48.37c1.38-.11,3.76-.38,4.57-.38s3-.16,3-.16a16.76,16.76,0,0,1,2.32-.19,5.12,5.12,0,0,1,1.43.11c-.07.07-2.44.24-2.44.24s-2.32.27-2.82.35-3.38.28-4.32.35a11.34,11.34,0,0,0-2.26.37,9,9,0,0,1-3.06.15,29.27,29.27,0,0,1-3.78-.55c-.37,0-5.66-.42-6.77-.59s-5.9-.65-6.52-.72-.12-.19-.12-.19,4.23.26,4.85.34,2.86.32,4,.43,3,.34,3.29.36S316.63,327.8,317.32,327.79Z"/><path d="M316.67,324.8s.61-.19.69-.37c.59.21,1.79.47,1.23.42A16.14,16.14,0,0,0,316.67,324.8Z"/><path d="M334.8,326.87l1.77.23.58-.38S335.45,326.88,334.8,326.87Z"/><path d="M302.28,326.44l-1.55-.15a2.67,2.67,0,0,0,.67.28C301.59,326.58,302.15,326.58,302.28,326.44Z"/><path d="M320.89,329.05h1.93c.7,0,.47.72.47.72A15,15,0,0,1,320.89,329.05Z"/><path d="M366.07,328.2c-.68-.07-1.16-.65-.83-.9s-.17-.29.34-.53a2.62,2.62,0,0,0,1-.73c.07-.17,1-.52,0-.63a7.3,7.3,0,0,0-2.18,0,2.77,2.77,0,0,1-1,.84c-.25,0-.51.3-.46.43s-.46.65-1,.74a5.28,5.28,0,0,1-2.5.15c-1.36-.23-3.71-.7-4.52-.78s-3-.42-3-.42a16.76,16.76,0,0,0-2.29-.39,5.12,5.12,0,0,0-1.43,0c.06.08,2.41.45,2.41.45s2.29.47,2.78.6,3.34.58,4.27.73a11.34,11.34,0,0,1,2.22.56,9,9,0,0,0,3,.42,29.28,29.28,0,0,0,3.82-.22c.37,0,5.67.08,6.8,0s5.93-.13,6.56-.15.13-.18.13-.18-4.24-.11-4.86-.09-2.87.07-4.06.08-3,.08-3.31.07S366.76,328.27,366.07,328.2Z"/><path d="M367,325.27s-.59-.24-.66-.43c-.6.16-1.83.31-1.26.31A16.15,16.15,0,0,1,367,325.27Z"/><path d="M348.74,325.76l-1.78.07-.54-.43S348.09,325.71,348.74,325.76Z"/><path d="M381.17,328.2h1.56a2.67,2.67,0,0,1-.7.22A4.16,4.16,0,0,1,381.17,328.2Z"/><path d="M362.41,329.15s-1.23-.07-1.93-.15-.53.68-.53.68A15,15,0,0,0,362.41,329.15Z"/><path class="cls-35" d="M37.25,138.37A14,14,0,0,1,52,145.81L46.94,155,23.13,193.2a9.71,9.71,0,0,1-17-8.93Z"/><path d="M268.82,409.26c1.6-.16,2.76-2.19,2-3.15s.43-1-.73-2a7.7,7.7,0,0,1-2.33-2.84c-.15-.62-2.18-2,0-2.28s5.09,0,5.09.3,1.75,3.14,2.33,3.24a1.67,1.67,0,0,1,1,1.63c-.14.46,1,2.44,2.18,2.87s2.62,1.57,5.82,1,8.73-2,10.62-2.14,7-1,7-1a26,26,0,0,1,5.38-1c1.89,0,3.49-.1,3.35.18s-5.67,1.27-5.67,1.27-5.38,1.36-6.54,1.73-7.85,1.58-10,2a18.61,18.61,0,0,0-5.23,1.7c-1,.59-2.76,1.11-7.13,1s-8-1.35-8.87-1.41-13.24-.61-15.85-1.07-13.82-1.41-15.27-1.56-.29-.68-.29-.68,9.89.27,11.35.45,6.69.7,9.46.92,7,.77,7.71.76A38.64,38.64,0,0,0,268.82,409.26Z"/><path d="M267,398.47s1.39-.79,1.58-1.45c1.39.67,4.22,1.42,2.91,1.34A24.17,24.17,0,0,0,267,398.47Z"/><path d="M309.47,403.1l4.15.54,1.3-1.44S311,403,309.47,403.1Z"/><path d="M233.62,406.76l-3.64-.31s1.16.92,1.6.92S233.32,407.28,233.62,406.76Z"/><path d="M277.26,413.29s2.87-.06,4.51-.24,1.17,2.55,1.17,2.55S277.52,413.94,277.26,413.29Z"/><path d="M382.52,402.89c-1.6-.15-2.77-2.19-2-3.14s-.44-1,.73-2a7.7,7.7,0,0,0,2.32-2.84c.15-.62,2.18-2,0-2.28s-5.09,0-5.09.31-1.74,3.15-2.33,3.24a1.67,1.67,0,0,0-1,1.64c.15.46-1,2.44-2.18,2.87s-2.62,1.57-5.82,1-8.73-2-10.62-2.12-7-1-7-1a26,26,0,0,0-5.38-1c-1.89,0-3.49-.09-3.35.19s5.67,1.26,5.67,1.26,5.38,1.35,6.55,1.72,7.86,1.57,10,2a18.61,18.61,0,0,1,5.24,1.69c1,.59,2.76,1.11,7.13,1a47.76,47.76,0,0,0,8.87-1.43c.87-.07,13.24-.63,15.85-1.09s13.82-1.43,15.27-1.58.29-.68.29-.68-9.89.29-11.34.47-6.69.71-9.45.93-7,.78-7.71.78A38.68,38.68,0,0,1,382.52,402.89Z"/><path d="M384.33,392.1s-1.39-.79-1.58-1.45c-1.39.67-4.22,1.42-2.91,1.34A24.18,24.18,0,0,1,384.33,392.1Z"/><path d="M341.86,396.8l-4.15.54-1.31-1.46S340.33,396.71,341.86,396.8Z"/><path d="M417.72,400.34l3.64-.31s-1.16.93-1.6.93S418,400.86,417.72,400.34Z"/><path d="M374.09,406.94s-2.87,0-4.51-.24-1.16,2.55-1.16,2.55S373.8,407.59,374.09,406.94Z"/><polygon class="cls-36" points="163.67 159.44 187.05 260.81 192.68 256.42 163.67 159.44"/><path class="cls-36" d="M29.52,206.59c-2.08,6.45-.73,13,3.47,16.6.66.56,5.56,4.62,10.71,2.54a10,10,0,0,0,5.24-5.53,18.29,18.29,0,0,0,1-18.66,21.67,21.67,0,0,1-3.57,11.26,21.17,21.17,0,0,1-5.19,5.38,15,15,0,0,1-5.12-2.13A16.26,16.26,0,0,1,29.52,206.59Z"/><path class="cls-37" d="M106.39,92.2a61.21,61.21,0,0,1-45.53,27.14c2.24.74,14.54,4.57,27.32-2.12C103,109.47,106,94.09,106.39,92.2Z"/><path class="cls-37" d="M41.18,72.48c-1.09,1.29-8.19,10-6.19,22a27.45,27.45,0,0,0,9.29,16.17,49.14,49.14,0,0,1-3.1-38.19Z"/><path class="cls-38" d="M45.77,139.66A14.16,14.16,0,0,1,52,145.82q-5.61,10.12-11.91,20.63-8.47,14.08-17,26.75a9.79,9.79,0,0,1-10.74,3.62Z"/><path class="cls-17" d="M40.17,165.34l-4-11.37a3.87,3.87,0,0,1,1.7-4.7,3.78,3.78,0,0,1,4,.41L47,155a29.76,29.76,0,0,1,2.13,8.25C49.64,168.47,42.76,168.65,40.17,165.34Z"/><path class="cls-17" d="M39.52,185.77A7.28,7.28,0,0,1,35.25,187a12.54,12.54,0,0,1-6.52,5.58,12.08,12.08,0,0,1-5.6.6,50.52,50.52,0,0,1,8.39-18.61,49.91,49.91,0,0,1,8.69-9.24l8.9-2a20.56,20.56,0,0,1-1.14,12Z"/><path class="cls-17" d="M31.62,152.35a19.91,19.91,0,0,0-13.88-2.45c-7.18,1.52-11,6.94-12.85,9.59A27.64,27.64,0,0,0,0,175.06a19.51,19.51,0,0,0,6.35,7.53,19.82,19.82,0,0,0,12.15,3.5,83.77,83.77,0,0,0,17-22.38,15.33,15.33,0,0,0-3.91-11.36Z"/></g></g></svg>