<svg xmlns="http://www.w3.org/2000/svg" viewBox="0 0 562.74 142.08"><defs><style>.cls-1{fill:#515151;}.cls-2{fill:#9acaf7;stroke:#070707;stroke-miterlimit:10;stroke-width:7px;}.cls-3{fill:#f2f3f4;}.cls-4{fill:#4c4c4c;}.cls-5,.cls-6{fill:#d9dbdb;}.cls-5{opacity:0.25;isolation:isolate;}</style></defs><title>Asset 2</title><g id="Layer_2" data-name="Layer 2"><g id="Layer_1-2" data-name="Layer 1"><ellipse class="cls-1" cx="393.61" cy="135.49" rx="49.17" ry="6.59"/><ellipse class="cls-1" cx="162.73" cy="134.48" rx="49.17" ry="6.59"/><g id="Layer_2-2" data-name="Layer 2"><g id="Layer_1-2-2" data-name="Layer 1-2"><path d="M553.56,25.87a6.86,6.86,0,0,1,8.78,8.78,70,70,0,0,1-31.07,29c-27.09,12.59-52.58,2.45-56.92.64L474,53.47c3.9,1.63,26.33,10.53,50.51-.47A63.41,63.41,0,0,0,553.56,25.87Z"/><path d="M474,53.47H447.25l-.3,10.86,27.39-.06"/><path d="M8.81,27.51A6.59,6.59,0,0,0,.38,35.93a67.18,67.18,0,0,0,29.8,27.79c26,12.07,50.42,2.35,54.59.62L84.12,54c-3.75,1.55-24.73,9.76-47.47-.44A60.14,60.14,0,0,1,8.81,27.51Z"/><path d="M83.77,64.34,110,64.4,109.76,54H84.12"/><circle class="cls-2" cx="163.62" cy="66.07" r="62.57"/><circle class="cls-2" cx="393.38" cy="66.07" r="62.57"/><path class="cls-3" d="M211.38,52.66a69.63,69.63,0,0,1-14.22,37.5c-16,20.61-38.49,25-44,25.86,21.15,2.94,41.68-5.92,52.37-22.63C217,75.49,212.31,56.18,211.38,52.66Z"/><path class="cls-3" d="M151.54,14a69.72,69.72,0,0,0-41.63,53.4,55,55,0,0,1,10-32A55.49,55.49,0,0,1,151.54,14Z"/><path class="cls-3" d="M343,52.66a69.63,69.63,0,0,0,14.22,37.5c16,20.61,38.49,25,44,25.86-21.22,3-41.76-5.93-52.44-22.63C337.33,75.49,342,56.18,343,52.66Z"/><path class="cls-3" d="M405.64,14a69.72,69.72,0,0,1,41.63,53.4,55,55,0,0,0-10-32A55.49,55.49,0,0,0,405.64,14Z"/><path d="M222.53,55.36c3.24,5,8.55,7.47,13,6.26a10.07,10.07,0,0,0,5.26-3.73c.89-1.3,14.31-20.32,38.18-19.63,22.5.65,34.69,18.24,35.82,19.94a10.17,10.17,0,0,0,9.51,4.49,10.35,10.35,0,0,0,8.71-9.5l-.26,12.88a12.39,12.39,0,0,1-22.4,1.58,36.13,36.13,0,0,0-65-1.17c-.13.29-3.21,6.73-10.31,7.46a12.84,12.84,0,0,1-12.14-6Z"/><path class="cls-4" d="M.38,35.93c2.38,4.23,13.51,23,37.47,30.63a67,67,0,0,0,45.92-2.22,72.64,72.64,0,0,1-45.24.54A72.86,72.86,0,0,1,.38,35.93Z"/><path class="cls-4" d="M562.63,33.49c-2.18,4-15.2,27.15-43.5,34.48a69.72,69.72,0,0,1-44.78-3.7,78.2,78.2,0,0,0,44.07,1.11C545,58.16,559,38.91,562.63,33.49Z"/><path class="cls-4" d="M242.79,55.35c-.22-.35,15.47-18,36.85-17.06,19,.85,32.08,16,31.87,16.27S298.57,41.08,280,40.2C258.81,39.2,243,55.69,242.79,55.35Z"/><path class="cls-5" d="M319.2,61.92v11.9a14.35,14.35,0,0,0,5.52-.35l-.43-10.76a10.15,10.15,0,0,1-5.13-.78Z"/><path class="cls-6" d="M298.59,30"/><path class="cls-5" d="M236.94,61.12,237,73.54a10.85,10.85,0,0,1-6,.09l.24-11.89a9.45,9.45,0,0,0,5.61-.63Z"/></g></g></g></g></svg>