<svg id="Layer_1" data-name="Layer 1" xmlns="http://www.w3.org/2000/svg" viewBox="0 0 829.65 490.26"><defs><style>.cls-1{fill:#efc08e;}.cls-2{fill:#ac7242;}.cls-3{fill:#fda187;}.cls-4{fill:#da9457;}.cls-5{fill:#ecb283;}.cls-6{fill:#ac7740;}.cls-7{fill:#ae6327;}.cls-8{fill:#a64d29;}.cls-9{fill:#f3efe0;}.cls-10{fill:#732b28;}.cls-11{fill:#571612;}.cls-12{fill:#5f1716;}.cls-13{fill:#6f1b1d;}.cls-14{fill:#cecece;}.cls-15{fill:#fe9271;}.cls-16{fill:#a0693a;}.cls-17{fill:#bd7d45;}.cls-18{fill:#1c1f1e;}.cls-19{fill:#1a1e1f;}.cls-20{fill:#c78a4c;}.cls-21{fill:#fda084;}.cls-22{fill:#361322;}.cls-23{fill:#b2774f;}.cls-24{fill:#f7c040;}.cls-25{fill:#895423;}.cls-26{fill:#b56e30;}.cls-27{fill:#96551c;}.cls-28{fill:#a66737;}.cls-29{fill:#f7a937;}.cls-30{fill:#5f3a17;}.cls-31{fill:#3e3c41;}.cls-32{fill:#9b5454;}.cls-33{fill:#d37b64;opacity:0.79;}.cls-34{fill:#f79f85;stroke:#3e3c41;stroke-miterlimit:10;stroke-width:6px;}.cls-35{fill:#352f1b;}.cls-36{fill:#174059;}.cls-37{font-size:63.1px;font-family:AmericanTypewriter-Semibold, American Typewriter;font-weight:700;}.cls-38{letter-spacing:0.02em;}.cls-39{font-size:100.13px;}.cls-39,.cls-42{font-family:HandTypist, HandTypist;}.cls-40{letter-spacing:0.03em;}.cls-41{letter-spacing:0em;}.cls-42{font-size:28.8px;}.cls-43{fill:#8e5e3d;}.cls-44{fill:#e5e4e3;opacity:0.51;}.cls-45{fill:#11303f;}</style></defs><title>heroesbg</title><rect class="cls-1" width="829.65" height="490.26"/><path class="cls-2" d="M131,261.39a29.31,29.31,0,0,0-1.79,18.78,28.43,28.43,0,0,0,5.65,11.18,33,33,0,0,0,15.88,0,16.33,16.33,0,0,0,6.17-8.56V255.32l-7.67-26.19L141,240.57l10.4,15.77c-5.63,17-9,20.85-11.11,20.58-.4-.05-1.16-.3-4-5.12A89.52,89.52,0,0,1,131,261.39Z"/><path class="cls-3" d="M124.61,248l12.85,27a3.94,3.94,0,0,0,2.83,1.94c4.85.27,9.32-14.2,11.11-20.58l-9.75-14.53h-4.92A12,12,0,0,1,124.61,248Z"/><polygon class="cls-2" points="198.74 292.4 199.55 271.71 182.27 240.86 198.74 292.4"/><path class="cls-2" d="M174,234.8l.83,8.41,7.48-2.35,7.87-7.7Z"/><polygon class="cls-4" points="169.24 188.86 169.04 235.3 190.14 233.16 193.35 230.23 169.24 188.86"/><polygon class="cls-5" points="182.27 240.86 193.35 230.23 199.55 245.32 199.55 271.71 182.27 240.86"/><path class="cls-6" d="M169.24,188.86l6.53-1.82a35.34,35.34,0,0,0,9.89,11.46l-7.75,5.19Z"/><path class="cls-6" d="M238.57,182.87l8.77,2.5L233.9,206.1l-6.38-8.4a41.86,41.86,0,0,0,11-14.83Z"/><path class="cls-2" d="M256.22,209.18a25.27,25.27,0,0,1,8.93,5.05l29,97a54.52,54.52,0,0,1-34.94,13.85l-9-65.09Z"/><path class="cls-7" d="M228.4,238.19,215,286.38l-1.35-15Z"/><polygon class="cls-8" points="219.16 271.33 214.62 282.59 214.96 286.38 219.16 271.33"/><path class="cls-9" d="M205.48,207.54a31.18,31.18,0,0,1-14.59-4.77,30,30,0,0,1-5.23-4.27l-6.89,4.64,13,17.68,13.74-13.28,14.19,14.29L233.9,206.1l-6.38-8.4a38.09,38.09,0,0,1-22,9.84Z"/><path class="cls-9" d="M181.2,203.76l-3.36-.15,21.71,41.7-.82,54.3h14.87V243.21L230,211.63l-10.34,10.2-7.34-7.39L208,226.77l-6-.11-5.46-10.4-4.72,4.56Z"/><polygon class="cls-10" points="205.48 207.54 197.24 215.51 199.25 225.53 200.31 225.51 211.41 225.28 213.91 216.03 205.48 207.54"/><path class="cls-10" d="M201.15,288.38l-.79-63,9.86-.11.48,63.07L206.18,294Z"/><path class="cls-11" d="M199.24,225.53a2.55,2.55,0,0,0,1.11,1l0-1Z"/><path class="cls-11" d="M210.22,225.31l1.19,0a3.79,3.79,0,0,1-1.19,1.22Z"/><path class="cls-12" d="M200.31,225.51l9.91-.19v.37l-9.89.17Z"/><path class="cls-13" d="M203.21,225.81l.63,65.57L201.7,289l-.7-63.15Z"/><polygon class="cls-13" points="197.24 215.51 205.53 208.38 213.91 216.03 205.48 207.54 197.24 215.51"/><polygon class="cls-14" points="211.41 225.28 219.68 221.83 213.91 216.03 211.41 225.28"/><path class="cls-14" d="M191.74,220.82l5.49-5.31,2,10Z"/><path class="cls-14" d="M219.68,221.83,230,211.63l3-4.57Z"/><path class="cls-14" d="M191.74,220.82,177.91,203.7l.86-.56Z"/><path class="cls-15" d="M135,244.72l10.88,26.72a38.52,38.52,0,0,0,5.51-15.1L141,240.57a7.28,7.28,0,0,1-4.27,1.24Z"/><path class="cls-16" d="M156.9,334.15,176,314.56l-.11,5.65-19.45,20Z"/><polygon class="cls-17" points="163.55 280.34 156.29 366.68 151.23 364.29 158.9 283.79 163.55 280.34"/><path class="cls-16" d="M258,329.28l-19.09-19.59.11,5.65,19.45,20Z"/><path class="cls-18" d="M265,324.6A79.83,79.83,0,0,0,270.25,350a4.71,4.71,0,0,0,3.52-.47,4.57,4.57,0,0,0,1.77-2v-5.7a27.69,27.69,0,0,0,16.27-9l-3.29-17.34a54.42,54.42,0,0,1-23.51,9Z"/><path class="cls-19" d="M198.74,299.62a38.53,38.53,0,0,0,7.61.72,39.58,39.58,0,0,0,7.27-.72c7.2-1.07,28.91,21.24,34.67,58.1,1.61,10.29.46,12,.22,48.52-.11,16.69,0,30.35.19,39.32l-20.3,2.22-9.47-78-1.27-11.22L203.5,361l-1.58,83-20,2.67-11.73-75.08Z"/><path class="cls-20" d="M219.43,379.09,265.15,368,250.23,260l14.92-45.73a61.11,61.11,0,0,0-22.54-10.47l-19.86,30.51,1.11,14.09-10.25,23Z"/><polyline class="cls-2" points="213.61 264.95 223.19 378.18 230.47 376.31 218.9 259.96"/><path class="cls-20" d="M149.23,363.29l7.67-80.5V255.32l-7.48-25.25a29.67,29.67,0,0,0-1-20.21,49.52,49.52,0,0,1,20.8-3.74L169,235.3l4.92-.5.83,8.41,7.48-2.35,16.47,51.54-1.88,84.2a130.44,130.44,0,0,1-47.62-13.31Z"/><path class="cls-21" d="M174,183.17a35.26,35.26,0,0,0,31.46,22.33,40.14,40.14,0,0,0,22.1-7.79c15.51-11.23,21.29-38.45,15-68.79l-29.22,5.29-1.85,23.2A48.8,48.8,0,0,1,174,183.17Z"/><path class="cls-15" d="M242.47,170.31a21.2,21.2,0,0,0,6.7-4.86c1.84-2,4.58-5,4.82-9.53a13.44,13.44,0,0,0-3.18-9.09,14,14,0,0,0-8.24-4.73"/><path class="cls-22" d="M249.78,127l-7.3.95,0,46,4.63-2.65A139.44,139.44,0,0,0,249.78,127Z"/><path class="cls-4" d="M229.72,212.08l-16.11,31.13v28.12l14.79-33.15-4-5h10.63l12.28-47.79Z"/><path class="cls-23" d="M136.73,128.36c-3.54,1.06-7.31,2.35-11.23,3.9a139.8,139.8,0,0,0-15.39,7.2c11.88,0,21.56-.13,28-.27,100.08-2.14,128.13-15.42,145.49-28.43,2.62-2,4.63-3.65,5.72-4.58a114.81,114.81,0,0,0-37,0l.53,4.79Z"/><path class="cls-24" d="M248.78,98.47A18,18,0,0,1,252.83,111c-12.28,3.19-25.56,6.13-39.78,8.58a485.59,485.59,0,0,1-61.56,6.59l-.09-13.84q21.75-3.78,44.65-7.11Q223.08,101.29,248.78,98.47Z"/><path class="cls-25" d="M151.4,112.31l13.71-48.08a123.18,123.18,0,0,1,48.34-9.43,121,121,0,0,1,25.93,3.11l9.4,40.56Z"/><path class="cls-26" d="M176.9,124.39a456.81,456.81,0,0,0,48.56-7c9.6-1.92,18.73-4.08,27.38-6.37A104.85,104.85,0,0,1,229,121.76,108.08,108.08,0,0,1,176.9,124.39Z"/><path class="cls-27" d="M165.11,64.23a121.58,121.58,0,0,1,74.27-6.32l-35.91,6.63"/><path class="cls-28" d="M151.4,112.31,161.75,111l3.36-46.75Z"/><path class="cls-29" d="M239.66,99.76l9.12-1.3A18,18,0,0,1,252.83,111c-7.64,2-15.65,3.86-24,5.59C216.64,119.08,205,121,194,122.45c10-1.32,25.18-5,38.84-16.23A69.42,69.42,0,0,0,239.66,99.76Z"/><path class="cls-4" d="M214.57,133.14a207.13,207.13,0,0,0,54.52-18.38c5.86-2.94,11.29-6,16.3-9.15l3.92.57a133,133,0,0,1-20.41,12.17,139.09,139.09,0,0,1-20.57,7.88A179.78,179.78,0,0,1,214.57,133.14Z"/><path class="cls-30" d="M239.38,57.91l-3.5.87-.68,41.5,13.58-1.81Z"/><path class="cls-31" d="M150.74,178.92l-8.89,15.18c1.32.86,2.74,1.73,4.25,2.59s3.27,1.79,4.81,2.54L159.18,184Z"/><rect class="cls-32" x="201.75" y="164.99" width="12.33" height="3.81" rx="1.91" ry="1.91"/><path class="cls-22" d="M207.82,170.8l25.77,12.75a38.65,38.65,0,0,1-12.56-.14,43.4,43.4,0,0,1-13.35-4.79,47.63,47.63,0,0,1-11.12,5,40.66,40.66,0,0,1-14.5,1.65Z"/><path class="cls-33" d="M242.64,145.47l-35.1,9L204,135.74l32-5.67,6.54-1.16Z"/><ellipse class="cls-34" cx="172.79" cy="144.74" rx="40.78" ry="38.43"/><circle class="cls-22" cx="227.88" cy="149.76" r="4.36"/><path class="cls-22" d="M238.69,140.44c-2.65.4-5.49.95-8.49,1.68a95.21,95.21,0,0,0-12.43,4l-.19-4.64a89.2,89.2,0,0,1,20.81-4.92Z"/><path class="cls-33" d="M135.08,141.17l70.57,20.47c.87-1.44,8.86-15.24,2.38-30.82-7-16.85-24.47-20.3-25.69-20.52-2.21-.58-17.19-4.22-31.21,5.38C137.93,124.73,135.46,138.77,135.08,141.17Z"/><path class="cls-22" d="M144.58,121.06c8.32,1.65,17.24,3.74,26.63,6.42,9,2.55,17.26,5.33,24.89,8.17l6-13.19a124.73,124.73,0,0,0-42.86-11.06,39.26,39.26,0,0,0-14.7,9.66Z"/><circle class="cls-22" cx="172.79" cy="149.76" r="14.17"/><path class="cls-33" d="M294.16,453.21a604.7,604.7,0,0,0-74.43-5.62c-20.11-.27-38.9.48-56.18,1.85-3.69-.41-6.62,2.1-6.84,4.57-.23,2.69,2.72,6,6.84,5.62,21.3.34,44,0,67.82-1.2C253.45,457.29,274.42,455.47,294.16,453.21Z"/><path class="cls-35" d="M180.92,446.66a20.44,20.44,0,0,0-9.38,6.57c4.47-.22,9.21-.6,14.2-1.18s9.58-1.3,13.94-2.1l0-5.78-8.18,1.09Z"/><path class="cls-35" d="M231.92,447.3l.18,4.66,30.56,1.68a34.71,34.71,0,0,0-14-8.1Z"/><polygon class="cls-2" points="235.06 233.16 226.35 235.3 224.44 233.16 235.06 233.16"/><path class="cls-33" d="M185.66,198.5a28.76,28.76,0,0,0,19.82,9c13,.35,21-8.61,22-9.84a33.31,33.31,0,0,1-9.43,5.12C203,208.06,188.9,200.38,185.66,198.5Z"/><path d="M380.34,428.3c1.17-.15,2-2.18,1.48-3.14s.32-1-.53-2a7.75,7.75,0,0,1-1.7-2.83c-.11-.61-1.59-2,0-2.28s3.71,0,3.71.3,1.28,3.13,1.7,3.23.85,1.17.74,1.63a4.32,4.32,0,0,0,1.59,2.86c.85.43,1.91,1.57,4.24.95s6.36-2,7.74-2.13,5.09-1,5.09-1a14.61,14.61,0,0,1,3.92-1c1.38,0,2.54-.09,2.44.18s-4.13,1.26-4.13,1.26-3.92,1.36-4.77,1.73-5.72,1.57-7.31,2a11.26,11.26,0,0,0-3.81,1.69c-.74.58-2,1.11-5.19,1s-5.83-1.35-6.47-1.41-9.65-.61-11.56-1.07-10.07-1.41-11.13-1.56-.21-.68-.21-.68,7.21.27,8.27.45,4.88.7,6.89.92,5.09.76,5.62.76A20.64,20.64,0,0,0,380.34,428.3Z"/><path d="M379,417.54s1-.79,1.15-1.45c1,.67,3.08,1.41,2.12,1.34A12.93,12.93,0,0,0,379,417.54Z"/><path d="M410,422.18l3,.54,1-1.46A32.88,32.88,0,0,1,410,422.18Z"/><path d="M354.69,425.8l-2.65-.31s.85.92,1.17.92S354.48,426.32,354.69,425.8Z"/><path d="M386.49,432.32s2.09-.06,3.29-.24.85,2.54.85,2.54S386.71,433,386.49,432.32Z"/><path d="M463.21,422c-1.17-.15-2-2.18-1.49-3.13s-.32-1,.53-2a7.75,7.75,0,0,0,1.69-2.83c.11-.61,1.59-2,0-2.28s-3.71,0-3.71.31-1.27,3.14-1.69,3.23-.85,1.17-.74,1.63a4.32,4.32,0,0,1-1.59,2.86c-.85.43-1.91,1.57-4.24,1s-6.36-2-7.74-2.12-5.09-1-5.09-1a14.61,14.61,0,0,0-3.92-1c-1.38,0-2.54-.09-2.44.19s4.14,1.26,4.14,1.26,3.92,1.35,4.77,1.72,5.73,1.56,7.32,2a11.26,11.26,0,0,1,3.82,1.69c.74.58,2,1.11,5.2,1s5.83-1.36,6.47-1.42,9.65-.62,11.55-1.09,10.07-1.42,11.13-1.58.21-.68.21-.68-7.21.28-8.27.47-4.88.71-6.89.93-5.09.77-5.62.77A20.66,20.66,0,0,1,463.21,422Z"/><path d="M464.53,411.22s-1-.79-1.15-1.44c-1,.67-3.08,1.42-2.12,1.34A12.93,12.93,0,0,1,464.53,411.22Z"/><path d="M433.58,415.9l-3,.54-1-1.46A32.94,32.94,0,0,0,433.58,415.9Z"/><path d="M488.86,419.44l2.65-.31s-.85.92-1.17.92S489.07,420,488.86,419.44Z"/><path d="M457.06,426s-2.09-.05-3.29-.24-.85,2.54-.85,2.54S456.85,426.66,457.06,426Z"/><path d="M402.83,400c.79,0,1.39-.75,1.05-1.12s.23-.37-.33-.75a3.17,3.17,0,0,1-1.1-1.1c-.06-.23-1-.8,0-.85a7.12,7.12,0,0,1,2.49.22c0,.13.81,1.2,1.09,1.25s.55.46.47.63.46.93,1,1.11a5.21,5.21,0,0,0,2.84.48c1.58-.16,4.32-.54,5.25-.56s3.44-.24,3.44-.24a16.46,16.46,0,0,1,2.66-.27c.93,0,1.72,0,1.64.14s-2.81.35-2.81.35-2.66.39-3.24.5-3.88.41-5,.52a11.32,11.32,0,0,0-2.6.52,8.8,8.8,0,0,1-3.52.24,28.65,28.65,0,0,1-4.33-.72c-.43,0-6.49-.51-7.77-.74s-6.76-.82-7.47-.91-.13-.26-.13-.26,4.85.32,5.56.41,3.27.41,4.63.55,3.41.44,3.77.45S402,400,402.83,400Z"/><path d="M402.12,395.93s.7-.26.8-.5c.67.28,2.05.62,1.41.56A15.7,15.7,0,0,0,402.12,395.93Z"/><path d="M422.89,398.57l2,.29.67-.52S423.64,398.57,422.89,398.57Z"/><path d="M385.59,398.28l-1.78-.19a2.79,2.79,0,0,0,.77.38C384.8,398.47,385.44,398.46,385.59,398.28Z"/><path d="M406.91,401.65s1.41,0,2.22,0,.53,1,.53,1A15.09,15.09,0,0,1,406.91,401.65Z"/><path d="M458.76,400.08c-.78-.09-1.32-.87-.95-1.21s-.2-.39.39-.72a3.17,3.17,0,0,0,1.19-1c.08-.23,1.1-.71,0-.85a7.12,7.12,0,0,0-2.5,0c0,.13-.91,1.13-1.2,1.15s-.59.41-.53.58-.54.88-1.12,1a5.21,5.21,0,0,1-2.87.23c-1.56-.3-4.25-.92-5.18-1s-3.41-.54-3.41-.54a16.46,16.46,0,0,0-2.63-.5c-.93,0-1.71-.11-1.65,0s2.76.59,2.76.59,2.62.62,3.19.78,3.83.75,4.9.95a11.32,11.32,0,0,1,2.54.74,8.79,8.79,0,0,0,3.48.54,28.66,28.66,0,0,0,4.38-.34c.43,0,6.51.06,7.8-.06s6.81-.23,7.52-.26.15-.25.15-.25-4.86-.11-5.58-.07-3.3.12-4.66.14-3.44.14-3.8.12S459.54,400.17,458.76,400.08Z"/><path d="M459.83,396.12s-.67-.32-.75-.57c-.69.22-2.1.44-1.45.44A15.7,15.7,0,0,1,459.83,396.12Z"/><path d="M438.9,396.94l-2,.11-.62-.57S438.15,396.87,438.9,396.94Z"/><path d="M476.08,399.9l1.79,0a2.79,2.79,0,0,1-.8.31C476.86,400.16,476.22,400.1,476.08,399.9Z"/><path d="M454.55,401.4s-1.41-.08-2.21-.19-.61.92-.61.92A15.09,15.09,0,0,0,454.55,401.4Z"/><path d="M418.8,382.59c.69,0,1.21-.55.91-.82s.2-.27-.29-.55a2.62,2.62,0,0,1-1-.82c-.06-.17-.91-.6,0-.63a7.3,7.3,0,0,1,2.18.18,2.77,2.77,0,0,0,1,.93c.25,0,.48.34.42.47s.41.69.9.83a5.28,5.28,0,0,0,2.48.37c1.38-.11,3.76-.38,4.57-.38s3-.16,3-.16a16.76,16.76,0,0,1,2.32-.19,5.12,5.12,0,0,1,1.43.11c-.07.07-2.44.24-2.44.24s-2.32.27-2.82.35-3.38.28-4.32.35a11.34,11.34,0,0,0-2.26.37,9,9,0,0,1-3.06.15,29.27,29.27,0,0,1-3.78-.55c-.37,0-5.66-.42-6.77-.59s-5.9-.65-6.52-.72-.12-.19-.12-.19,4.23.26,4.85.34,2.86.32,4,.43,3,.34,3.29.36S418.11,382.6,418.8,382.59Z"/><path d="M418.15,379.6s.61-.19.69-.37c.59.21,1.79.47,1.23.42A16.14,16.14,0,0,0,418.15,379.6Z"/><path d="M436.28,381.67l1.77.23.58-.38S436.93,381.68,436.28,381.67Z"/><path d="M403.76,381.24l-1.55-.15a2.67,2.67,0,0,0,.67.28C403.07,381.38,403.63,381.38,403.76,381.24Z"/><path d="M422.37,383.85s1.23,0,1.93,0,.47.72.47.72A15,15,0,0,1,422.37,383.85Z"/><path d="M467.55,383c-.68-.07-1.16-.65-.83-.9s-.17-.29.34-.53a2.62,2.62,0,0,0,1-.73c.07-.17,1-.52,0-.63a7.3,7.3,0,0,0-2.18,0,2.77,2.77,0,0,1-1,.84c-.25,0-.51.3-.46.43s-.46.65-1,.74a5.28,5.28,0,0,1-2.5.15c-1.36-.23-3.71-.7-4.52-.78s-3-.42-3-.42a16.76,16.76,0,0,0-2.29-.39,5.12,5.12,0,0,0-1.43,0c.06.08,2.41.45,2.41.45s2.29.47,2.78.6,3.34.58,4.27.73a11.34,11.34,0,0,1,2.22.56,9,9,0,0,0,3,.42,29.28,29.28,0,0,0,3.82-.22c.37,0,5.67.08,6.8,0s5.93-.13,6.56-.15.13-.18.13-.18-4.24-.11-4.86-.09-2.87.07-4.06.08-3,.08-3.31.07S468.24,383.07,467.55,383Z"/><path d="M468.46,380.07s-.59-.24-.66-.43c-.6.16-1.83.31-1.26.31A16.15,16.15,0,0,1,468.46,380.07Z"/><path d="M450.22,380.56l-1.78.07-.54-.43S449.57,380.51,450.22,380.56Z"/><path d="M482.65,383l1.56,0a2.67,2.67,0,0,1-.7.22C483.33,383.16,482.77,383.11,482.65,383Z"/><path d="M463.89,383.95s-1.23-.07-1.93-.15-.53.68-.53.68A15,15,0,0,0,463.89,383.95Z"/><path class="cls-36" d="M138.73,193.17a14,14,0,0,1,14.75,7.44l-5.06,9.23L124.61,248a9.71,9.71,0,0,1-17-8.93Z"/><text class="cls-37" transform="translate(327.68 120.2) scale(0.88 1)">HE<tspan class="cls-38" x="91.87" y="0">R</tspan><tspan x="138.82" y="0">OES</tspan></text><text class="cls-39" transform="translate(428.58 170.49)">&amp;</text><text class="cls-37" transform="translate(304.15 229.16) scale(0.88 1)">VIL<tspan class="cls-40" x="110.24" y="0">L</tspan><tspan class="cls-41" x="152.07" y="0">AINS</tspan></text><text class="cls-42" transform="translate(367.4 256.99)">221B Baker Street</text><path d="M370.3,464.06c1.6-.16,2.76-2.19,2-3.15s.43-1-.73-2a7.7,7.7,0,0,1-2.33-2.84c-.15-.62-2.18-2,0-2.28s5.09,0,5.09.3,1.75,3.14,2.33,3.24a1.67,1.67,0,0,1,1,1.63c-.14.46,1,2.44,2.18,2.87s2.62,1.57,5.82,1,8.73-2,10.62-2.14,7-1.05,7-1.05a26,26,0,0,1,5.38-1.05c1.89,0,3.49-.1,3.35.18s-5.67,1.27-5.67,1.27-5.38,1.36-6.54,1.73-7.85,1.58-10,2a18.61,18.61,0,0,0-5.23,1.7c-1,.59-2.76,1.11-7.13,1.05s-8-1.35-8.87-1.41-13.24-.61-15.85-1.07-13.82-1.41-15.27-1.56-.29-.68-.29-.68,9.89.27,11.35.45,6.69.7,9.46.92,7,.77,7.71.76A38.64,38.64,0,0,0,370.3,464.06Z"/><path d="M368.47,453.27s1.39-.79,1.58-1.45c1.39.67,4.22,1.42,2.91,1.34A24.17,24.17,0,0,0,368.47,453.27Z"/><path d="M410.95,457.9l4.15.54L416.4,457S412.47,457.81,410.95,457.9Z"/><path d="M335.1,461.56l-3.64-.31s1.16.92,1.6.92S334.8,462.08,335.1,461.56Z"/><path d="M378.74,468.09s2.87-.06,4.51-.24,1.17,2.55,1.17,2.55S379,468.74,378.74,468.09Z"/><path d="M484,457.69c-1.6-.15-2.77-2.19-2-3.14s-.44-1,.73-2a7.7,7.7,0,0,0,2.32-2.84c.15-.62,2.18-2,0-2.28s-5.09,0-5.09.31-1.74,3.15-2.33,3.24a1.67,1.67,0,0,0-1,1.64c.15.46-1,2.44-2.18,2.87s-2.62,1.57-5.82,1-8.73-2-10.62-2.12-7-1-7-1a26,26,0,0,0-5.38-1c-1.89,0-3.49-.09-3.35.19s5.67,1.26,5.67,1.26,5.38,1.35,6.55,1.72,7.86,1.57,10,2a18.61,18.61,0,0,1,5.24,1.69c1,.59,2.76,1.11,7.13,1s8-1.36,8.87-1.43,13.24-.63,15.85-1.09,13.82-1.43,15.27-1.58.29-.68.29-.68-9.89.29-11.34.47-6.69.71-9.45.93-7,.78-7.71.78A38.68,38.68,0,0,1,484,457.69Z"/><path d="M485.81,446.9s-1.39-.79-1.58-1.45c-1.39.67-4.22,1.42-2.91,1.34A24.18,24.18,0,0,1,485.81,446.9Z"/><path d="M443.34,451.6l-4.15.54-1.31-1.46S441.81,451.51,443.34,451.6Z"/><path d="M519.2,455.14l3.64-.31s-1.16.93-1.6.93S519.49,455.66,519.2,455.14Z"/><path d="M475.57,461.74s-2.87-.05-4.51-.24-1.16,2.55-1.16,2.55S475.28,462.39,475.57,461.74Z"/><polygon class="cls-43" points="265.15 214.23 288.53 315.61 294.16 311.21 265.15 214.23"/><path class="cls-43" d="M131,261.39c-2.08,6.45-.73,13,3.47,16.6.66.56,5.56,4.62,10.71,2.54a10,10,0,0,0,5.24-5.53,18.29,18.29,0,0,0,1-18.66,21.67,21.67,0,0,1-3.57,11.26,21.17,21.17,0,0,1-5.19,5.38,15,15,0,0,1-5.12-2.13A16.26,16.26,0,0,1,131,261.39Z"/><path class="cls-44" d="M207.87,147a61.21,61.21,0,0,1-45.53,27.14c2.24.74,14.54,4.57,27.32-2.12C204.46,164.27,207.53,148.89,207.87,147Z"/><path class="cls-44" d="M142.66,127.28c-1.09,1.29-8.19,10-6.19,22a27.45,27.45,0,0,0,9.29,16.17,49.14,49.14,0,0,1-3.1-38.19Z"/><path class="cls-45" d="M147.25,194.46a14.16,14.16,0,0,1,6.23,6.16q-5.61,10.12-11.91,20.63-8.47,14.08-17,26.75a9.79,9.79,0,0,1-10.74,3.62Z"/><path class="cls-18" d="M141.65,220.14l-4-11.37a3.87,3.87,0,0,1,1.7-4.7,3.78,3.78,0,0,1,4,.41l5.12,5.36a29.76,29.76,0,0,1,2.13,8.25C151.12,223.27,144.24,223.45,141.65,220.14Z"/><path class="cls-18" d="M141,240.57a7.28,7.28,0,0,1-4.27,1.24,12.54,12.54,0,0,1-6.52,5.58,12.08,12.08,0,0,1-5.6.6A50.52,50.52,0,0,1,133,229.38a49.91,49.91,0,0,1,8.69-9.24l8.9-2a20.56,20.56,0,0,1-1.14,12Z"/><path class="cls-18" d="M133.1,207.15a19.91,19.91,0,0,0-13.88-2.45c-7.18,1.52-11,6.94-12.85,9.59a27.64,27.64,0,0,0-4.89,15.57,19.51,19.51,0,0,0,6.35,7.53,19.82,19.82,0,0,0,12.15,3.5,83.77,83.77,0,0,0,17-22.38,15.33,15.33,0,0,0-3.91-11.36Z"/></svg>