<svg xmlns="http://www.w3.org/2000/svg" viewBox="0 0 73.32 143.07"><defs><style>.cls-1{fill:#565656;opacity:0.77;isolation:isolate;}.cls-2{fill:#231f20;}.cls-3{fill:#c42628;}.cls-4{fill:#f39c24;}.cls-5{fill:#ee7c22;}.cls-6{fill:#c62327;}.cls-7{fill:#ec6524;}.cls-8{fill:#ec8323;}.cls-9{fill:#b02024;}.cls-10{fill:#333;}</style></defs><title>lipstick</title><g id="Layer_2" data-name="Layer 2"><g id="Layer_1-2" data-name="Layer 1"><g id="Layer_2-2" data-name="Layer 2"><g id="Layer_1-2-2" data-name="Layer 1-2"><ellipse class="cls-1" cx="36.66" cy="139.2" rx="36.66" ry="3.87"/><g id="Layer_2-2-2" data-name="Layer 2-2"><g id="Layer_1-2-2-2" data-name="Layer 1-2-2"><path class="cls-2" d="M17.36,88h40a118.85,118.85,0,0,1-.69,30.28,118.54,118.54,0,0,1-5.21,21.05H23.08A122.12,122.12,0,0,1,17.36,88Z"/><path class="cls-3" d="M17.32,84.86V88h40V84.77Z"/><rect class="cls-4" x="20.83" y="74.57" width="33.45" height="10.21"/><rect class="cls-5" x="24.78" y="40.72" width="25.55" height="33.84"/><path class="cls-6" d="M28.39,40.72V21.13c1.23-3.83,2.53-7.71,4-11.84a23.08,23.08,0,0,1,3.74-6.92C37.37.82,38,0,38.73,0c1.62-.09,4,3.41,7.57,18.72v22Z"/><rect class="cls-7" x="24.78" y="40.72" width="12.77" height="33.84"/><rect class="cls-8" x="20.83" y="74.57" width="16.73" height="10.21"/><polygon class="cls-9" points="17.31 84.86 17.36 88.03 37.56 88.01 37.56 84.78 17.31 84.86"/><path class="cls-10" d="M57.35,88H37.56l.17,51.31H51.48a103.82,103.82,0,0,0,6.25-26.1A103.81,103.81,0,0,0,57.35,88Z"/><path class="cls-9" d="M37.85.4l-.3,40.32H28.39V21.13a33.28,33.28,0,0,1,1.83-8.55A33.77,33.77,0,0,1,37.85.4Z"/></g></g></g></g></g></g></svg>