<svg xmlns="http://www.w3.org/2000/svg" viewBox="0 0 168.43 149.22"><defs><style>.cls-1,.cls-2,.cls-8{isolation:isolate;fill:#e0e0e0;font-family:AmericanTypewriter-Bold, American Typewriter;font-weight:700;}.cls-1{font-size:44.97px;}.cls-2{font-size:32.22px;}.cls-3{fill:#3f3d42;}.cls-4,.cls-7{fill:none;stroke-miterlimit:10;}.cls-4{stroke:#575559;stroke-width:6px;}.cls-5{fill:#197c3c;}.cls-6{fill:#194c2e;}.cls-7{stroke:#9e9d9e;stroke-width:1.06px;}.cls-8{font-size:87.85px;}.cls-10,.cls-9{fill:#fff;}.cls-9{opacity:0.65;}</style></defs><title>magnifyglass_2</title><g id="Layer_2" data-name="Layer 2"><g id="Layer_1-2" data-name="Layer 1"><g id="Layer_2-2" data-name="Layer 2"><g id="Layer_1-2-2" data-name="Layer 1-2"><text class="cls-1" transform="translate(102.2 73.44)">?</text><text class="cls-2" transform="translate(124.56 83.44)">?</text><path class="cls-3" d="M43.71,76.08l-8.9,15.16c1.32.86,2.74,1.73,4.25,2.59s3.27,1.79,4.81,2.54l8.28-15.21Z"/><ellipse class="cls-4" cx="65.76" cy="41.88" rx="40.78" ry="38.43"/><path class="cls-5" d="M31.7,90.31a14,14,0,0,1,14.75,7.44L41.39,107,17.58,145.14A9.77,9.77,0,0,1,5.08,148,9.77,9.77,0,0,1,.56,136.21Z"/><path class="cls-6" d="M47.06,97.77a14.17,14.17,0,0,0-6.23-6.16L5.68,148.08a10,10,0,0,0,6.9.87,9.93,9.93,0,0,0,5.6-3.76c5.51-8.11,11.07-16.76,16.6-25.95Q41.38,108.24,47.06,97.77Z"/><ellipse class="cls-7" cx="66.11" cy="42.35" rx="41.13" ry="38.9"/><text class="cls-2" transform="translate(92.23 92.53)">?</text><text class="cls-1" transform="translate(140.6 76.09)">?</text><text class="cls-8" transform="translate(39.45 73.44)">?</text></g></g><path class="cls-9" d="M61,8.7C46.78,12.53,36.24,24.23,34.37,38.18c-2.43,18.08,11,30.29,12.08,31.26-10.65-7-16.76-18.91-15.63-30.91C32.22,23.56,44.67,10.86,61,8.7Z"/><path class="cls-9" d="M100.8,32.85A39.36,39.36,0,0,1,72.38,73.71c1.54-.06,15.84-.86,24.51-13.5C105.43,47.77,101.3,34.38,100.8,32.85Z"/><path class="cls-10" d="M86.95,48.84"/></g></g></svg>