<svg xmlns="http://www.w3.org/2000/svg" viewBox="0 0 96.03 124.93"><defs><style>.cls-1{fill:#515151;opacity:0.46;isolation:isolate;}.cls-2{fill:#87451e;}.cls-3{fill:#924d21;}.cls-4{fill:#6f3d18;}.cls-5{fill:#fcc552;}.cls-6{fill:#343033;}.cls-7{fill:#3b3b43;}.cls-8{fill:#332612;}.cls-9{fill:#4d4d4a;}.cls-10{fill:#444345;}.cls-11{fill:#f4c676;}.cls-12{fill:#c4c3c2;}.cls-13{fill:#939291;}.cls-14{fill:#595959;}.cls-15{fill:#a09f9f;}</style></defs><title>pipe</title><g id="Layer_2" data-name="Layer 2"><g id="Layer_1-2" data-name="Layer 1"><g id="Layer_2-2" data-name="Layer 2"><g id="Layer_1-2-2" data-name="Layer 1-2"><path class="cls-1" d="M65.28,111.69,88.11,115a1.69,1.69,0,0,1,1.15.85,1.74,1.74,0,0,1-.09,1.63l-23.71-.75a86.42,86.42,0,0,1-30.58,8C18.35,125.81,0,122.25,0,119.5,0,117.26,12.42,114.42,65.28,111.69Z"/><g id="Layer_2-2-2" data-name="Layer 2-2"><g id="Layer_1-2-2-2" data-name="Layer 1-2-2"><path class="cls-2" d="M40.67,87.77h2.5a80,80,0,0,1,9.65-7.91A92.76,92.76,0,0,1,64,73.37c12.23-5.91,26-9,31.29-10.15a1.72,1.72,0,0,1,.43,2.39v0c0,.08-.08.08-.08.17a103.28,103.28,0,0,0-52.34,43.27l-5.66,6.82"/><path class="cls-3" d="M5.22,78.87A48.85,48.85,0,0,0,1.56,95.34c-.25,6.91-.58,15,4.49,20.55,7.49,8.07,24,8.16,31.46,0,5.41-6,4.66-14.9,4-22.14A47.86,47.86,0,0,0,37.84,79,26.45,26.45,0,0,1,22,84.78,25.93,25.93,0,0,1,5.22,78.87Z"/><path class="cls-4" d="M43.25,109.07A102.88,102.88,0,0,1,95.6,65.8,76.21,76.21,0,0,0,43.25,109.07Z"/><path class="cls-5" d="M64,73.46a8.93,8.93,0,0,1,3.91,7.82l6.24-4.49a5.56,5.56,0,0,0-.58-3.66,5.7,5.7,0,0,0-3.25-2.5,29.91,29.91,0,0,0-3.08,1.25C66.14,72.38,65.05,72.88,64,73.46Z"/><path class="cls-6" d="M70.38,70.63a5.7,5.7,0,0,1,3.25,2.5,5.32,5.32,0,0,1,.58,3.58A99.31,99.31,0,0,1,95.6,65.89a2,2,0,0,0,.33-1.66,1.66,1.66,0,0,0-.67-.83c-3.41.67-7,1.5-10.82,2.58A126.45,126.45,0,0,0,70.38,70.63Z"/><path class="cls-7" d="M38,79.7c0,3-9.24,5.91-17,5.74-7.24-.08-16-2.83-16.06-5.74s8.82-6.16,16.56-6.07S38.09,76.7,38,79.7Z"/><path class="cls-8" d="M33.68,79.28c0,1.83-6.66,3.5-12.32,3.41C16.12,82.61,9.72,81,9.72,79.28s6.41-3.66,12.07-3.66S33.68,77.54,33.68,79.28Z"/><path class="cls-9" d="M9.72,79.28l-4.49-.42h0a4.68,4.68,0,0,0-.17.83C5,80.53,6.22,81.53,7,82a9.91,9.91,0,0,0,1.25.75l3-1.91a3.27,3.27,0,0,1-1.5-1.5Z"/><path class="cls-4" d="M40.67,87.77h2.5a39.54,39.54,0,0,0,1.91,18.39c-.5.92-1.17,1.91-1.83,2.91a42.26,42.26,0,0,1-3.91,4.74A59.56,59.56,0,0,0,41.5,99,56.77,56.77,0,0,0,40.67,87.77Z"/><path class="cls-10" d="M74.21,74.71a8,8,0,0,1,0,2c3.91-2.16,7.16-3.83,9.57-5.08,5.41-2.75,11.82-5.83,11.9-5.83h0s-6.41,2.33-11.73,4.49C81.53,71.29,78.2,72.71,74.21,74.71Z"/><path class="cls-11" d="M67.72,78.62l6.49-4a4.4,4.4,0,0,1,0,2.08L68,81.2a14.22,14.22,0,0,0-.25-2.58Z"/><path class="cls-4" d="M6.89,82A62,62,0,0,0,4.72,99.84a29.07,29.07,0,0,0,1.5,9.82,25.44,25.44,0,0,0,8.4,11.23,17.72,17.72,0,0,1-7.82-4.33,19.09,19.09,0,0,1-3.41-4.74c-1.83-3.58-1.91-6.66-2.08-10.9A54.32,54.32,0,0,1,5.06,79.45Z"/><path class="cls-12" d="M21.7,79.2C9.22,67.55,6.89,58.31,7.14,52,7.88,35.84,25.53,28.27,22.7,15.37,20.53,5.39,8.05,1.14,8.72.14S24.86,3.22,30,15.71c3.74,9.15.33,18.56-.67,21.55-4.16,11.32-11.23,12.4-12.9,21.3C15,66.72,18.54,74.29,21.7,79.2Z"/><path class="cls-13" d="M50.41,50.91"/><path class="cls-14" d="M11.8,30.19c-3.41-3.16-4-5.66-3.91-7.41.17-4.41,5-6.49,4.24-10-.58-2.75-4-3.91-3.83-4.16s4.41.83,5.83,4.24A8.26,8.26,0,0,1,14,18.7c-1.17,3.08-3.08,3.41-3.5,5.83A7.54,7.54,0,0,0,11.8,30.19Z"/><path class="cls-15" d="M31.85,37.18c4.33,5,5,8.82,4.74,11.48C36,55.23,29.27,58,30.1,63.39c.58,4.16,5.08,6.16,4.83,6.49S29,68.3,27.44,63.06a13.63,13.63,0,0,1,.75-8.82c1.75-4.58,4.41-4.91,5.24-8.49C34.1,42.42,32.85,39.34,31.85,37.18Z"/></g></g></g></g></g></g></svg>