<svg xmlns="http://www.w3.org/2000/svg" viewBox="0 0 48.15 80.92"><defs><style>.cls-1,.cls-8{fill:none;stroke-miterlimit:10;}.cls-1{stroke:#aa703c;}.cls-2,.cls-6,.cls-7{fill:#8c5129;}.cls-3,.cls-9{fill:#d99852;}.cls-4{fill:#f8f0dc;}.cls-10,.cls-11,.cls-14,.cls-5{fill:#5d1d00;}.cls-6{opacity:0.4;}.cls-7{opacity:0.59;}.cls-8{stroke:#d89048;stroke-width:0.25px;}.cls-9{opacity:0.29;}.cls-10{opacity:0.88;}.cls-11{opacity:0.8;}.cls-12,.cls-13{fill:#ffda9b;}.cls-12{opacity:0.71;}.cls-13{opacity:0.47;}.cls-14{opacity:0.6;}</style></defs><title>pocketwatch</title><g id="Layer_2" data-name="Layer 2"><g id="Layer_1-2" data-name="Layer 1"><ellipse class="cls-1" cx="23.18" cy="28" rx="6.76" ry="4.71"/><path class="cls-2" d="M20.21,36l.48-1V29.82h5.06V35l.4,1.05a27.54,27.54,0,0,0-5.95,0Z"/><circle class="cls-3" cx="22.91" cy="58.01" r="22.91"/><circle class="cls-4" cx="22.91" cy="58.23" r="19.56"/><rect class="cls-2" x="19.48" y="26.67" width="7.41" height="3.46" rx="1.73" ry="1.73"/><rect class="cls-5" x="16.06" y="23.11" width="3.65" height="1.02" rx="0.45" ry="0.45" transform="translate(-10.73 15.96) rotate(-37.88)"/><path class="cls-6" d="M34.85,38.45,32.73,41.3a20.86,20.86,0,0,1,8.92,12.13,20.58,20.58,0,0,1-.87,12.77l3.18.88a22.91,22.91,0,0,0-9.1-28.63Z"/><path class="cls-7" d="M1.63,49.53l3,1.63A22,22,0,0,0,6.88,69.44L4.25,71.3A22.9,22.9,0,0,1,1.63,49.53Z"/><circle class="cls-8" cx="16.42" cy="21.73" r="1.28" transform="translate(-10.61 25.09) rotate(-60)"/><rect class="cls-5" x="15.41" y="22.27" width="3.65" height="1.02" rx="0.45" ry="0.45" transform="translate(-10.36 15.38) rotate(-37.88)"/><circle class="cls-8" cx="14.88" cy="19.75" r="1.28" transform="translate(-9.66 22.76) rotate(-60)"/><circle class="cls-8" cx="13.83" cy="17.51" r="1.28" transform="translate(-8.4 15.55) rotate(-46.66)"/><circle class="cls-8" cx="12.78" cy="15.22" r="1.28" transform="translate(-7.06 14.07) rotate(-46.66)"/><circle class="cls-8" cx="11.8" cy="12.93" r="1.28" transform="translate(-5.53 10.43) rotate(-39.41)"/><circle class="cls-8" cx="11.05" cy="10.53" r="1.28" transform="translate(-4.17 9.41) rotate(-39.41)"/><circle class="cls-8" cx="10.36" cy="8.18" r="1.28" transform="translate(-1.67 2.76) rotate(-14.03)"/><circle class="cls-8" cx="10.32" cy="5.69" r="1.28" transform="translate(-1.07 2.67) rotate(-14.03)"/><circle class="cls-8" cx="11.3" cy="3.37" r="1.28" transform="translate(3.88 12.53) rotate(-67.62)"/><circle class="cls-8" cx="13.06" cy="1.57" r="1.28" transform="translate(6.63 13.05) rotate(-67.62)"/><circle class="cls-8" cx="15.54" cy="1.4" r="1.28" transform="translate(-0.06 1.73) rotate(-6.38)"/><circle class="cls-8" cx="17.96" cy="2.09" r="1.28" transform="translate(-0.12 2.01) rotate(-6.38)"/><circle class="cls-8" cx="20.17" cy="3.05" r="1.28" transform="translate(10.29 20.9) rotate(-69.61)"/><circle class="cls-8" cx="22.03" cy="4.75" r="1.28" transform="translate(9.9 23.74) rotate(-69.61)"/><circle class="cls-8" cx="23.67" cy="6.76" r="1.28" transform="translate(7.77 25.56) rotate(-65.71)"/><circle class="cls-8" cx="25.41" cy="8.58" r="1.28" transform="translate(7.13 28.21) rotate(-65.71)"/><circle class="cls-8" cx="27.44" cy="10.1" r="1.28" transform="translate(11.1 34.34) rotate(-76.22)"/><circle class="cls-8" cx="29.47" cy="11.57" r="1.28" transform="translate(11.22 37.44) rotate(-76.22)"/><circle class="cls-8" cx="31.53" cy="13.09" r="1.28" transform="translate(-1.1 3.04) rotate(-5.44)"/><circle class="cls-8" cx="33.93" cy="13.81" r="1.28" transform="translate(-1.16 3.28) rotate(-5.44)"/><circle class="cls-8" cx="36.38" cy="13.51" r="1.28" transform="translate(0.22 27.6) rotate(-41.66)"/><circle class="cls-8" cx="38.75" cy="12.67" r="1.28" transform="translate(1.38 28.96) rotate(-41.66)"/><rect class="cls-2" x="32.11" y="10.13" width="18.73" height="1.44" rx="0.62" ry="0.62" transform="translate(20.98 -26.81) rotate(46.79)"/><rect class="cls-5" x="39.15" y="11.48" width="3.65" height="1.02" rx="0.45" ry="0.45" transform="translate(1.27 27.68) rotate(-37.88)"/><rect class="cls-5" x="38.5" y="10.64" width="3.65" height="1.02" rx="0.45" ry="0.45" transform="translate(1.65 27.11) rotate(-37.88)"/><path class="cls-9" d="M21,30.12l.93,0v5l-1,.06Z"/><rect class="cls-5" x="17.84" y="23.98" width="1.83" height="1.02" rx="0.35" ry="0.35" transform="translate(10.93 54.33) rotate(-127.88)"/><path class="cls-2" d="M25.89,23.16l-.48.92a7.11,7.11,0,0,1,1.73.69,4.44,4.44,0,0,1,1.66,1.34,3.7,3.7,0,0,1,.59,2.3h1a4.22,4.22,0,0,0-.14-1.65C29.48,24.09,26.21,23.24,25.89,23.16Z"/><circle class="cls-5" cx="23.5" cy="59.28" r="2.37"/><circle class="cls-2" cx="23.5" cy="59.28" r="1.42"/><circle class="cls-3" cx="23.5" cy="59.28" r="0.87"/><rect class="cls-10" x="23.07" y="48.14" width="0.87" height="9.04"/><path class="cls-5" d="M23.43,43.89c-.07.44-.19,1.13-.38,2-.38,1.71-.64,2.27-.32,2.63a1.19,1.19,0,0,0,1.57,0c.32-.39,0-1-.45-2.64C23.63,45,23.5,44.33,23.43,43.89Z"/><rect class="cls-11" x="18.17" y="56.14" width="0.87" height="6.27" transform="translate(-40.68 77.88) rotate(-90)"/><path class="cls-5" d="M11.35,59.4c.44.07,1.13.18,2,.36,1.72.36,2.28.61,2.63.29a1.19,1.19,0,0,0,0-1.57c-.39-.31-1,0-2.63.49C12.46,59.19,11.78,59.33,11.35,59.4Z"/><path class="cls-12" d="M6.88,69.44a22.79,22.79,0,0,0,22.76,1.19c10.2-5.28,11.87-16.18,12-17.2.32,1.3,2.12,9.2-2.82,16.21A19.85,19.85,0,0,1,17.74,77.1,20.22,20.22,0,0,1,6.88,69.44Z"/><path class="cls-13" d="M30.39,40.15A24.36,24.36,0,0,0,12.3,46.38C4,54.15,4.81,64.83,4.93,66.08a20,20,0,0,1,4.81-22A20,20,0,0,1,30.39,40.15Z"/><circle class="cls-5" cx="23.5" cy="41.33" r="0.87"/><circle class="cls-5" cx="31.72" cy="43.57" r="0.87" transform="translate(-16.68 67.26) rotate(-80.02)"/><circle class="cls-5" cx="37.42" cy="49.12" r="0.87"/><circle class="cls-5" cx="40.14" cy="56.99" r="0.87"/><circle class="cls-5" cx="6.51" cy="56.99" r="0.87"/><circle class="cls-5" cx="38.09" cy="65.21" r="0.87"/><circle class="cls-5" cx="31.86" cy="72.41" r="0.87"/><circle class="cls-5" cx="23.5" cy="74.91" r="0.87"/><circle class="cls-5" cx="14.25" cy="43.57" r="0.87"/><circle class="cls-5" cx="9.35" cy="49.12" r="0.87"/><circle class="cls-5" cx="14.25" cy="72.41" r="0.87"/><circle class="cls-5" cx="8.48" cy="65.21" r="0.87"/><path class="cls-14" d="M20,29.66l6.39,0a1.21,1.21,0,0,1-.55.37L20.6,30a1.21,1.21,0,0,1-.61-.36Z"/><path class="cls-14" d="M24.65,30h.93v5.26l-.95-.09Z"/></g></g></svg>