<svg xmlns="http://www.w3.org/2000/svg" viewBox="0 0 293.27 102.68"><defs><style>.cls-1,.cls-7{fill:#444;}.cls-1{opacity:0.48;}.cls-2,.cls-3{fill:none;stroke-miterlimit:10;stroke-width:8.06px;}.cls-2{stroke:#b5b5b5;}.cls-3{stroke:#f2f2f2;}.cls-4{fill:#6a6b6b;}.cls-5{fill:#020202;}.cls-6{fill:#f2f2f3;}.cls-7{opacity:0.33;}.cls-8{fill:#d3d3d3;}</style></defs><title>reel_3</title><g id="Layer_2" data-name="Layer 2"><g id="Layer_1-2" data-name="Layer 1"><ellipse class="cls-1" cx="146.64" cy="96.06" rx="146.64" ry="6.62"/><path class="cls-2" d="M113.5,82.09c4.91,2.93,17.34,9.41,33.14,7.35a39,39,0,0,0,11.63-3.07c9.89-4.44,12.31-10.84,27.11-27.36,4.11-4.59,8.25-9.39,13.74-12.27a24.9,24.9,0,0,1,25.44,1.66c12.92,9.25,14.08,29.23,27.23,38.15,6,4.08,16.79,7.56,37,1.82"/><path class="cls-3" d="M113.41,83.09c4.91,2.93,17.34,9.41,33.14,7.35a39,39,0,0,0,11.63-3.07C168.08,82.93,170.5,76.53,185.3,60c4.11-4.59,8.25-9.39,13.74-12.27a24.9,24.9,0,0,1,25.44,1.66c12.92,9.25,14.08,29.23,27.23,38.15,6,4.08,16.79,7.56,37,1.82"/><path class="cls-4" d="M130.69,48A47.93,47.93,0,1,1,106,6,48,48,0,0,1,130.69,48Z"/><circle class="cls-5" cx="110.14" cy="61.55" r="10.3"/><circle class="cls-5" cx="110.14" cy="34.31" r="10.3"/><path class="cls-6" d="M102.25,30a8.94,8.94,0,0,0,12.25,12.24,8.4,8.4,0,0,0,1-.7,28.28,28.28,0,0,0-9-15.22,8.24,8.24,0,0,0-1.11.54A9,9,0,0,0,102.25,30Z"/><path class="cls-6" d="M109.78,52.87A8.94,8.94,0,0,0,106,69.77a8.4,8.4,0,0,0,1.13.47,28.28,28.28,0,0,0,8.05-15.74,8.24,8.24,0,0,0-1-.65A9,9,0,0,0,109.78,52.87Z"/><path class="cls-7" d="M82.83.29l-.1,95.62c-3.87,0-19.6-.53-32.79-12.76-1.5-1.39-17.51-16.48-15.07-39.34A49.27,49.27,0,0,1,48.33,14.94C62,.92,79.35.34,82.83.29Z"/><circle class="cls-5" cx="81.9" cy="17.4" r="10.3"/><circle class="cls-5" cx="55.09" cy="34.31" r="10.3"/><circle class="cls-5" cx="55.09" cy="60.55" r="10.3"/><circle class="cls-5" cx="82.73" cy="78.5" r="10.3"/><path class="cls-8" d="M55.44,43.57A8.94,8.94,0,0,0,59.77,26.8a8.4,8.4,0,0,0-1.11-.5A28.28,28.28,0,0,0,50.1,41.78a8.24,8.24,0,0,0,1,.68A9,9,0,0,0,55.44,43.57Z"/><path class="cls-8" d="M61.74,66.92A8.94,8.94,0,0,0,52.89,52a8.4,8.4,0,0,0-1.14.43,28.28,28.28,0,0,0,4.95,17,8.24,8.24,0,0,0,1.21-.25A9,9,0,0,0,61.74,66.92Z"/><path class="cls-6" d="M90.68,74.33a8.94,8.94,0,0,0-17,3.33,8.4,8.4,0,0,0,0,1.22,28.28,28.28,0,0,0,17.65,1,8.24,8.24,0,0,0,.17-1.22A9,9,0,0,0,90.68,74.33Z"/><path class="cls-6" d="M74.32,21.88a8.94,8.94,0,0,0,16.73-4.46,8.4,8.4,0,0,0-.11-1.22,28.28,28.28,0,0,0-17.68.14,8.24,8.24,0,0,0-.09,1.23A9,9,0,0,0,74.32,21.88Z"/><path class="cls-5" d="M90.38,48.25a6.8,6.8,0,1,0-6.8,6.8A6.8,6.8,0,0,0,90.38,48.25Z"/><circle class="cls-5" cx="83.61" cy="39.19" r="1.13"/><circle class="cls-5" cx="83.61" cy="57.31" r="1.13"/><circle class="cls-5" cx="74.55" cy="48.25" r="1.13"/><circle class="cls-5" cx="92.68" cy="48.25" r="1.13"/><path class="cls-8" d="M82.11,14.86l.08,11.58A9.19,9.19,0,0,1,76,24.05a9.52,9.52,0,0,1-2.77-7.71,28.05,28.05,0,0,1,8.85-1.49Z"/><path class="cls-8" d="M83.13,69.26l-.4,11.61a29.76,29.76,0,0,1-9-2,8.93,8.93,0,0,1,9.42-9.63Z"/></g></g></svg>