<svg xmlns="http://www.w3.org/2000/svg" viewBox="0 0 48.67 81.51"><defs><style>.cls-1{fill:#7f7f7e;opacity:0.77;}.cls-1,.cls-10,.cls-11,.cls-12,.cls-13,.cls-14,.cls-15,.cls-7,.cls-8{isolation:isolate;}.cls-2,.cls-9{fill:none;stroke-miterlimit:10;}.cls-2{stroke:#aa703c;}.cls-3,.cls-7,.cls-8{fill:#8c5129;}.cls-10,.cls-4{fill:#d99852;}.cls-5{fill:#f8f0dc;}.cls-11,.cls-12,.cls-15,.cls-6{fill:#5d1d00;}.cls-7{opacity:0.4;}.cls-8{opacity:0.59;}.cls-9{stroke:#d89048;stroke-width:0.25px;}.cls-10{opacity:0.29;}.cls-11{opacity:0.88;}.cls-12{opacity:0.8;}.cls-13,.cls-14{fill:#ffda9b;}.cls-13{opacity:0.71;}.cls-14{opacity:0.47;}.cls-15{opacity:0.6;}</style></defs><title>watch</title><g id="Layer_2" data-name="Layer 2"><g id="Layer_1-2" data-name="Layer 1"><g id="Layer_2-2" data-name="Layer 2"><g id="Layer_1-2-2" data-name="Layer 1-2"><ellipse class="cls-1" cx="24.33" cy="78.83" rx="24.33" ry="2.68"/><g id="Layer_2-2-2" data-name="Layer 2-2"><g id="Layer_1-2-2-2" data-name="Layer 1-2-2"><ellipse class="cls-2" cx="23.7" cy="28.01" rx="6.76" ry="4.71"/><path class="cls-3" d="M20.73,36l.48-1V29.83h5.06V35l.4,1a27.54,27.54,0,0,0-6,0Z"/><circle class="cls-4" cx="23.43" cy="58.02" r="22.91"/><circle class="cls-5" cx="23.43" cy="58.24" r="19.56"/><path class="cls-3" d="M21.73,26.68h4a1.73,1.73,0,0,1,1.73,1.73h0a1.73,1.73,0,0,1-1.73,1.73h-4A1.73,1.73,0,0,1,20,28.41h0A1.73,1.73,0,0,1,21.73,26.68Z"/><rect class="cls-6" x="16.58" y="23.12" width="3.65" height="1.02" rx="0.45" ry="0.45" transform="translate(-10.63 16.28) rotate(-37.88)"/><path class="cls-7" d="M35.37,38.46l-2.12,2.85a20.86,20.86,0,0,1,8.92,12.13,20.58,20.58,0,0,1-.87,12.77l3.18.88a22.91,22.91,0,0,0-9.1-28.63Z"/><path class="cls-8" d="M2.15,49.54l3,1.63A22,22,0,0,0,7.4,69.45L4.77,71.31A22.9,22.9,0,0,1,2.15,49.54Z"/><circle class="cls-9" cx="16.95" cy="21.74" r="1.28" transform="translate(-10.36 25.55) rotate(-60)"/><rect class="cls-6" x="15.92" y="22.28" width="3.65" height="1.02" rx="0.45" ry="0.45" transform="translate(-10.25 15.7) rotate(-37.88)"/><circle class="cls-9" cx="15.4" cy="19.76" r="1.28" transform="translate(-9.41 23.22) rotate(-60)"/><circle class="cls-9" cx="14.34" cy="17.52" r="1.28" transform="translate(-8.25 15.93) rotate(-46.66)"/><circle class="cls-9" cx="13.29" cy="15.23" r="1.28" transform="translate(-6.91 14.45) rotate(-46.66)"/><circle class="cls-9" cx="12.32" cy="12.94" r="1.28" transform="translate(-5.42 10.76) rotate(-39.41)"/><circle class="cls-9" cx="11.57" cy="10.54" r="1.28" transform="translate(-4.06 9.74) rotate(-39.41)"/><circle class="cls-9" cx="10.88" cy="8.2" r="1.28" transform="translate(-1.66 2.88) rotate(-14.03)"/><circle class="cls-9" cx="10.84" cy="5.7" r="1.28" transform="translate(-1.06 2.8) rotate(-14.03)"/><circle class="cls-9" cx="11.82" cy="3.37" r="1.28" transform="translate(4.2 13.01) rotate(-67.62)"/><circle class="cls-9" cx="13.57" cy="1.58" r="1.28" transform="translate(6.94 13.53) rotate(-67.62)"/><circle class="cls-9" cx="16.06" cy="1.41" r="1.28" transform="translate(-0.06 1.79) rotate(-6.38)"/><circle class="cls-9" cx="18.48" cy="2.1" r="1.28" transform="translate(-0.12 2.07) rotate(-6.38)"/><circle class="cls-9" cx="20.7" cy="3.07" r="1.28" transform="translate(10.6 21.4) rotate(-69.61)"/><circle class="cls-9" cx="22.55" cy="4.75" r="1.28" transform="translate(10.24 24.23) rotate(-69.61)"/><circle class="cls-9" cx="24.19" cy="6.77" r="1.28" transform="translate(8.07 26.03) rotate(-65.71)"/><circle class="cls-9" cx="25.92" cy="8.59" r="1.28" transform="translate(7.43 28.68) rotate(-65.71)"/><circle class="cls-9" cx="27.97" cy="10.11" r="1.28" transform="translate(11.49 34.87) rotate(-76.22)"/><circle class="cls-9" cx="29.99" cy="11.59" r="1.28" transform="translate(11.59 37.96) rotate(-76.22)"/><circle class="cls-9" cx="32.05" cy="13.09" r="1.28" transform="translate(-1.1 3.1) rotate(-5.44)"/><circle class="cls-9" cx="34.52" cy="14.05" r="1.29" transform="translate(-1.12 3.15) rotate(-5.14)"/><circle class="cls-9" cx="36.89" cy="13.52" r="1.28" transform="translate(0.34 27.94) rotate(-41.66)"/><circle class="cls-9" cx="39.27" cy="12.68" r="1.28" transform="translate(1.5 29.31) rotate(-41.66)"/><rect class="cls-3" x="41.27" y="1.49" width="1.44" height="18.73" rx="0.62" ry="0.62" transform="translate(3.96 31.69) rotate(-43.21)"/><rect class="cls-6" x="39.68" y="11.48" width="3.65" height="1.02" rx="0.45" ry="0.45" transform="translate(1.38 28.01) rotate(-37.88)"/><rect class="cls-6" x="39.02" y="10.65" width="3.65" height="1.02" rx="0.45" ry="0.45" transform="translate(1.75 27.43) rotate(-37.88)"/><path class="cls-10" d="M21.52,30.13h.93v5l-1,.06Z"/><rect class="cls-6" x="18.76" y="23.59" width="1.02" height="1.83" rx="0.35" ry="0.35" transform="translate(-10.99 16.99) rotate(-37.88)"/><path class="cls-3" d="M26.41,23.17l-.48.92a7.11,7.11,0,0,1,1.73.69,4.44,4.44,0,0,1,1.66,1.34,3.7,3.7,0,0,1,.59,2.3h1a4.22,4.22,0,0,0-.14-1.65C30,24.1,26.73,23.25,26.41,23.17Z"/><circle class="cls-6" cx="24.02" cy="59.29" r="2.37"/><circle class="cls-3" cx="24.02" cy="59.29" r="1.42"/><circle class="cls-4" cx="24.02" cy="59.29" r="0.87"/><rect class="cls-11" x="23.59" y="48.15" width="0.87" height="9.04"/><path class="cls-6" d="M24,43.9c-.07.44-.19,1.13-.38,2-.38,1.71-.64,2.27-.32,2.63a1.19,1.19,0,0,0,1.57,0c.32-.39,0-1-.45-2.64A18.22,18.22,0,0,1,24,43.9Z"/><rect class="cls-12" x="15.98" y="58.85" width="6.27" height="0.87"/><path class="cls-6" d="M11.87,59.41c.44.07,1.13.18,2,.36,1.72.36,2.28.61,2.63.29a1.19,1.19,0,0,0,0-1.57c-.39-.31-1,0-2.63.49C13,59.2,12.3,59.34,11.87,59.41Z"/><path class="cls-13" d="M7.4,69.45a22.79,22.79,0,0,0,22.76,1.19c10.2-5.28,11.87-16.18,12-17.2.32,1.3,2.12,9.2-2.82,16.21a19.85,19.85,0,0,1-21.08,7.46A20.22,20.22,0,0,1,7.4,69.45Z"/><path class="cls-14" d="M30.91,40.16a24.36,24.36,0,0,0-18.09,6.23c-8.3,7.77-7.49,18.45-7.37,19.7A19.75,19.75,0,0,1,30.91,40.16Z"/><circle class="cls-6" cx="24.02" cy="41.34" r="0.87"/><circle class="cls-6" cx="31.93" cy="43.59" r="0.87" transform="translate(-16.48 67.6) rotate(-80.16)"/><circle class="cls-6" cx="37.94" cy="49.13" r="0.87"/><circle class="cls-6" cx="40.66" cy="57" r="0.87"/><circle class="cls-6" cx="7.03" cy="57" r="0.87"/><circle class="cls-6" cx="38.61" cy="65.22" r="0.87"/><circle class="cls-6" cx="32.38" cy="72.42" r="0.87"/><circle class="cls-6" cx="24.02" cy="74.92" r="0.87"/><circle class="cls-6" cx="14.77" cy="43.58" r="0.87"/><circle class="cls-6" cx="9.87" cy="49.13" r="0.87"/><circle class="cls-6" cx="14.77" cy="72.42" r="0.87"/><circle class="cls-6" cx="9" cy="65.22" r="0.87"/><path class="cls-15" d="M20.52,29.67h6.39a1.21,1.21,0,0,1-.55.37H21.12a1.21,1.21,0,0,1-.61-.36Z"/><path class="cls-15" d="M25.17,30h.93v5.26l-1-.09Z"/></g></g></g></g></g></g></svg>